# Blender 3.5.0
# www.blender.org
mtllib Switch.mtl
o 円柱.001
v -0.879888 3.436533 -0.217859
v 0.879888 3.436533 -0.217859
v -0.879888 3.394031 -0.213673
v 0.879888 3.394031 -0.213673
v -0.879888 3.353162 -0.201275
v 0.879888 3.353162 -0.201275
v -0.879888 3.315497 -0.181143
v 0.879888 3.315497 -0.181143
v -0.879888 3.282483 -0.154050
v 0.879888 3.282483 -0.154050
v -0.879888 3.255390 -0.121036
v 0.879888 3.255389 -0.121036
v -0.879888 3.235257 -0.083371
v 0.879888 3.235257 -0.083371
v -0.879888 3.222860 -0.042502
v 0.879888 3.222860 -0.042502
v -0.879888 3.218674 0.000000
v 0.879888 3.218674 0.000000
v -0.879888 3.222860 0.042502
v 0.879888 3.222860 0.042502
v -0.879888 3.235257 0.083371
v 0.879888 3.235257 0.083371
v -0.879888 3.255390 0.121036
v 0.879888 3.255389 0.121036
v -0.879888 3.282483 0.154050
v 0.879888 3.282483 0.154050
v -0.879888 3.315497 0.181143
v 0.879888 3.315497 0.181143
v -0.879888 3.353162 0.201275
v 0.879888 3.353162 0.201275
v -0.879888 3.394031 0.213673
v 0.879888 3.394031 0.213673
v -0.879888 3.436533 0.217859
v 0.879888 3.436533 0.217859
v -0.879888 3.479035 0.213673
v 0.879888 3.479035 0.213673
v -0.879888 3.519904 0.201275
v 0.879888 3.519904 0.201275
v -0.879888 3.557569 0.181143
v 0.879888 3.557569 0.181143
v -0.879888 3.590582 0.154050
v 0.879888 3.590582 0.154050
v -0.879888 3.617676 0.121036
v 0.879888 3.617676 0.121036
v -0.879888 3.637808 0.083371
v 0.879888 3.637808 0.083371
v -0.879888 3.650206 0.042502
v 0.879888 3.650206 0.042502
v -0.879888 3.654392 0.000000
v 0.879888 3.654392 0.000000
v -0.879888 3.650206 -0.042502
v 0.879888 3.650206 -0.042502
v -0.879888 3.637808 -0.083371
v 0.879888 3.637808 -0.083371
v -0.879888 3.617676 -0.121036
v 0.879888 3.617676 -0.121036
v -0.879888 3.590582 -0.154050
v 0.879888 3.590582 -0.154050
v -0.879888 3.557569 -0.181143
v 0.879888 3.557569 -0.181143
v -0.879888 3.519904 -0.201275
v 0.879888 3.519904 -0.201275
v -0.879888 3.479035 -0.213673
v 0.879888 3.479035 -0.213673
v -1.000000 0.000000 0.787220
v -1.000000 2.000000 0.787220
v -1.000000 0.000000 -0.787220
v -1.000000 2.000000 -0.787220
v 1.000000 0.000000 0.787220
v 1.000000 2.000000 0.787220
v 1.000000 0.000000 -0.787220
v 1.000000 2.000000 -0.787220
v 0.000000 1.625934 -0.153805
v 0.000000 3.415273 -0.153805
v 0.030006 1.625934 -0.150850
v 0.030006 3.415273 -0.150850
v 0.058859 1.625934 -0.142098
v 0.058859 3.415273 -0.142098
v 0.085450 1.625934 -0.127884
v 0.085450 3.415273 -0.127884
v 0.108757 1.625934 -0.108757
v 0.108757 3.415273 -0.108757
v 0.127884 1.625934 -0.085450
v 0.127884 3.415273 -0.085450
v 0.142098 1.625934 -0.058859
v 0.142098 3.415273 -0.058859
v 0.150850 1.625934 -0.030006
v 0.150850 3.415273 -0.030006
v 0.153805 1.625934 0.000000
v 0.153805 3.415273 0.000000
v 0.150850 1.625934 0.030006
v 0.150850 3.415273 0.030006
v 0.142098 1.625934 0.058859
v 0.142098 3.415273 0.058859
v 0.127884 1.625934 0.085450
v 0.127884 3.415273 0.085450
v 0.108757 1.625934 0.108757
v 0.108757 3.415273 0.108757
v 0.085450 1.625934 0.127884
v 0.085450 3.415273 0.127884
v 0.058859 1.625934 0.142098
v 0.058859 3.415273 0.142098
v 0.030006 1.625934 0.150850
v 0.030006 3.415273 0.150850
v 0.000000 1.625934 0.153805
v 0.000000 3.415273 0.153805
v -0.030006 1.625934 0.150850
v -0.030006 3.415273 0.150850
v -0.058859 1.625934 0.142098
v -0.058859 3.415273 0.142098
v -0.085450 1.625934 0.127884
v -0.085450 3.415273 0.127884
v -0.108757 1.625934 0.108757
v -0.108757 3.415273 0.108757
v -0.127884 1.625934 0.085450
v -0.127884 3.415273 0.085450
v -0.142098 1.625934 0.058859
v -0.142098 3.415273 0.058859
v -0.150850 1.625934 0.030006
v -0.150850 3.415273 0.030006
v -0.153805 1.625934 0.000000
v -0.153805 3.415273 0.000000
v -0.150850 1.625934 -0.030006
v -0.150850 3.415273 -0.030006
v -0.142098 1.625934 -0.058859
v -0.142098 3.415273 -0.058859
v -0.127884 1.625934 -0.085450
v -0.127884 3.415273 -0.085450
v -0.108757 1.625934 -0.108757
v -0.108757 3.415273 -0.108757
v -0.085450 1.625934 -0.127884
v -0.085450 3.415273 -0.127884
v -0.058859 1.625934 -0.142098
v -0.058859 3.415273 -0.142098
v -0.030006 1.625934 -0.150850
v -0.030006 3.415273 -0.150850
vn -0.0000 -0.0980 -0.9952
vn -0.0000 -0.2903 -0.9569
vn -0.0000 -0.4714 -0.8819
vn -0.0000 -0.6344 -0.7730
vn -0.0000 -0.7730 -0.6344
vn -0.0000 -0.8819 -0.4714
vn -0.0000 -0.9569 -0.2903
vn -0.0000 -0.9952 -0.0980
vn -0.0000 -0.9952 0.0980
vn -0.0000 -0.9569 0.2903
vn -0.0000 -0.8819 0.4714
vn -0.0000 -0.7730 0.6344
vn -0.0000 -0.6344 0.7730
vn -0.0000 -0.4714 0.8819
vn -0.0000 -0.2903 0.9569
vn -0.0000 -0.0980 0.9952
vn -0.0000 0.0980 0.9952
vn -0.0000 0.2903 0.9569
vn -0.0000 0.4714 0.8819
vn -0.0000 0.6344 0.7730
vn -0.0000 0.7730 0.6344
vn -0.0000 0.8819 0.4714
vn -0.0000 0.9569 0.2903
vn -0.0000 0.9952 0.0980
vn -0.0000 0.9952 -0.0980
vn -0.0000 0.9569 -0.2903
vn -0.0000 0.8819 -0.4714
vn -0.0000 0.7730 -0.6344
vn -0.0000 0.6344 -0.7730
vn -0.0000 0.4714 -0.8819
vn 1.0000 -0.0000 -0.0000
vn -0.0000 0.2903 -0.9569
vn -0.0000 0.0980 -0.9952
vn -1.0000 -0.0000 -0.0000
vn -0.0000 -0.0000 -1.0000
vn -0.0000 -0.0000 1.0000
vn -0.0000 -1.0000 -0.0000
vn -0.0000 1.0000 -0.0000
vn 0.0980 -0.0000 -0.9952
vn 0.2903 -0.0000 -0.9569
vn 0.4714 -0.0000 -0.8819
vn 0.6344 -0.0000 -0.7730
vn 0.7730 -0.0000 -0.6344
vn 0.8819 -0.0000 -0.4714
vn 0.9569 -0.0000 -0.2903
vn 0.9952 -0.0000 -0.0980
vn 0.9952 -0.0000 0.0980
vn 0.9569 -0.0000 0.2903
vn 0.8819 -0.0000 0.4714
vn 0.7730 -0.0000 0.6344
vn 0.6344 -0.0000 0.7730
vn 0.4714 -0.0000 0.8819
vn 0.2903 -0.0000 0.9569
vn 0.0980 -0.0000 0.9952
vn -0.0980 -0.0000 0.9952
vn -0.2903 -0.0000 0.9569
vn -0.4714 -0.0000 0.8819
vn -0.6344 -0.0000 0.7730
vn -0.7730 -0.0000 0.6344
vn -0.8819 -0.0000 0.4714
vn -0.9569 -0.0000 0.2903
vn -0.9952 -0.0000 0.0980
vn -0.9952 -0.0000 -0.0980
vn -0.9569 -0.0000 -0.2903
vn -0.8819 -0.0000 -0.4714
vn -0.7730 -0.0000 -0.6344
vn -0.6344 -0.0000 -0.7730
vn -0.4714 -0.0000 -0.8819
vn -0.2903 -0.0000 -0.9569
vn -0.0980 -0.0000 -0.9952
vt 0.479063 0.899622
vt 0.017928 0.828433
vt 0.576868 0.721118
vt 0.479063 0.968671
vt 0.472295 0.721118
vt 0.017928 0.897482
vt 0.521688 0.899622
vt 0.472295 0.899622
vt 0.578188 0.714480
vt 0.472295 0.968671
vt 0.521688 0.968671
vt 0.472295 0.727886
vt 0.859895 0.899955
vt 0.514920 0.899622
vt 0.580778 0.708227
vt 0.514920 0.968671
vt 0.859895 0.969004
vt 0.473615 0.734523
vt 0.732020 0.690143
vt 0.853127 0.899955
vt 0.584538 0.702600
vt 0.853127 0.969004
vt 0.732020 0.759192
vt 0.476205 0.740776
vt 0.479063 0.794717
vt 0.725252 0.690143
vt 0.589324 0.697814
vt 0.725252 0.759192
vt 0.479063 0.863765
vt 0.479965 0.746404
vt 0.817270 0.899955
vt 0.472295 0.794717
vt 0.594951 0.694054
vt 0.472295 0.863765
vt 0.817270 0.969004
vt 0.484751 0.751189
vt 0.773459 0.899955
vt 0.810502 0.899955
vt 0.601204 0.691464
vt 0.810502 0.969004
vt 0.773459 0.969004
vt 0.490378 0.754949
vt 0.730834 0.899955
vt 0.766691 0.899955
vt 0.607842 0.690143
vt 0.766691 0.969004
vt 0.730834 0.969004
vt 0.496631 0.757539
vt 0.688209 0.899955
vt 0.724066 0.899955
vt 0.614610 0.690143
vt 0.724066 0.969004
vt 0.688209 0.969004
vt 0.503269 0.758860
vt 0.606937 0.899622
vt 0.681441 0.899955
vt 0.621248 0.691464
vt 0.681441 0.969004
vt 0.606937 0.968671
vt 0.510037 0.758860
vt 0.564312 0.899622
vt 0.600169 0.899622
vt 0.627501 0.694054
vt 0.600169 0.968671
vt 0.564312 0.968671
vt 0.516675 0.757539
vt 0.688209 0.690143
vt 0.557544 0.899622
vt 0.633128 0.697814
vt 0.557544 0.968671
vt 0.688209 0.759192
vt 0.522928 0.754949
vt 0.774645 0.690143
vt 0.681441 0.690143
vt 0.637914 0.702600
vt 0.681441 0.759192
vt 0.774645 0.759192
vt 0.528555 0.751189
vt 0.945145 0.795049
vt 0.767877 0.690143
vt 0.641674 0.708227
vt 0.767877 0.759192
vt 0.945145 0.864098
vt 0.533341 0.746404
vt 0.945145 0.690143
vt 0.938377 0.795049
vt 0.644264 0.714480
vt 0.938377 0.864098
vt 0.945145 0.759192
vt 0.537101 0.740776
vt 0.902520 0.795049
vt 0.938377 0.690143
vt 0.645584 0.721118
vt 0.938377 0.759192
vt 0.902520 0.864098
vt 0.539691 0.734523
vt 0.902520 0.690143
vt 0.895752 0.795049
vt 0.645584 0.727886
vt 0.895752 0.864098
vt 0.902520 0.759192
vt 0.541011 0.727886
vt 0.067321 0.828433
vt 0.895752 0.690143
vt 0.644264 0.734523
vt 0.895752 0.759192
vt 0.067321 0.897482
vt 0.541011 0.721118
vt 0.817270 0.795049
vt 0.060553 0.828433
vt 0.641674 0.740776
vt 0.060553 0.897482
vt 0.817270 0.864098
vt 0.539691 0.714480
vt 0.024696 0.723527
vt 0.810502 0.795049
vt 0.637914 0.746404
vt 0.810502 0.864098
vt 0.024696 0.792576
vt 0.537101 0.708227
vt 0.859895 0.690143
vt 0.017928 0.723527
vt 0.633128 0.751189
vt 0.017928 0.792576
vt 0.859895 0.759192
vt 0.533341 0.702600
vt 0.688209 0.795049
vt 0.853127 0.690143
vt 0.627501 0.754949
vt 0.853127 0.759192
vt 0.688209 0.864098
vt 0.528555 0.697814
vt 0.606937 0.794717
vt 0.681441 0.795049
vt 0.621248 0.757539
vt 0.681441 0.864098
vt 0.606937 0.863765
vt 0.522928 0.694054
vt 0.564312 0.794717
vt 0.600169 0.794717
vt 0.614610 0.758860
vt 0.600169 0.863765
vt 0.564312 0.863765
vt 0.516675 0.691464
vt 0.521688 0.794717
vt 0.557544 0.794717
vt 0.607842 0.758860
vt 0.557544 0.863765
vt 0.521688 0.863765
vt 0.510037 0.690143
vt 0.902520 0.899955
vt 0.514920 0.794717
vt 0.601204 0.757539
vt 0.514920 0.863765
vt 0.902520 0.969004
vt 0.503269 0.690143
vt 0.730834 0.795049
vt 0.895752 0.899955
vt 0.594951 0.754949
vt 0.895752 0.969004
vt 0.730834 0.864098
vt 0.496631 0.691464
vt 0.817270 0.690143
vt 0.724066 0.795049
vt 0.589324 0.751189
vt 0.724066 0.864098
vt 0.817270 0.759192
vt 0.490378 0.694054
vt 0.067321 0.723527
vt 0.810502 0.690143
vt 0.584538 0.746404
vt 0.810502 0.759192
vt 0.067321 0.792576
vt 0.484751 0.697814
vt 0.774645 0.795049
vt 0.060553 0.723527
vt 0.580778 0.740776
vt 0.060553 0.792576
vt 0.774645 0.864098
vt 0.479965 0.702600
vt 0.859895 0.795049
vt 0.767877 0.795049
vt 0.578188 0.734523
vt 0.767877 0.864098
vt 0.476205 0.708227
vt 0.859895 0.864098
vt 0.024696 0.828433
vt 0.853127 0.795049
vt 0.576868 0.727886
vt 0.473615 0.714480
vt 0.853127 0.864098
vt 0.024696 0.897482
vt 0.017928 0.334871
vt 0.096403 0.687670
vt 0.210734 0.370728
vt 0.017928 0.017928
vt 0.096403 0.370728
vt 0.325066 0.620231
vt 0.667124 0.017928
vt 0.210734 0.620231
vt 0.267432 0.334871
vt 0.267432 0.017928
vt 0.667124 0.334871
vt 0.325066 0.370728
vt 0.017928 0.687670
vt 0.303289 0.017928
vt 0.132260 0.370728
vt 0.303289 0.334871
vt 0.017928 0.370728
vt 0.246591 0.620231
vt 0.552793 0.017928
vt 0.588649 0.017928
vt 0.132260 0.620231
vt 0.246591 0.370728
vt 0.588649 0.334871
vt 0.552793 0.334871
vt 0.398047 0.973702
vt 0.436438 0.973702
vt 0.945004 0.899955
vt 0.398047 0.690143
vt 0.023367 0.982071
vt 0.436438 0.690143
vt 0.322572 0.939647
vt 0.399314 0.973702
vt 0.946170 0.900452
vt 0.399314 0.690143
vt 0.322572 0.656088
vt 0.024556 0.981632
vt 0.170599 0.939647
vt 0.324362 0.939647
vt 0.947268 0.901866
vt 0.324362 0.656088
vt 0.170599 0.656088
vt 0.025721 0.980273
vt 0.847778 0.370728
vt 0.173081 0.939647
vt 0.948256 0.904143
vt 0.173081 0.656088
vt 0.847778 0.654287
vt 0.026819 0.978047
vt 0.822822 0.301487
vt 0.844612 0.370728
vt 0.949096 0.907196
vt 0.844612 0.654287
vt 0.822822 0.017928
vt 0.027807 0.975039
vt 0.702981 0.301487
vt 0.826591 0.301487
vt 0.949756 0.910906
vt 0.826591 0.017928
vt 0.702981 0.017928
vt 0.028648 0.971365
vt 0.568404 0.370728
vt 0.707232 0.301487
vt 0.950211 0.915132
vt 0.707232 0.017928
vt 0.568404 0.654287
vt 0.029308 0.967166
vt 0.360923 0.654287
vt 0.563818 0.370728
vt 0.950443 0.919712
vt 0.563818 0.654287
vt 0.360923 0.370728
vt 0.029763 0.962603
vt 0.446906 0.370728
vt 0.365679 0.654287
vt 0.950443 0.924468
vt 0.365679 0.370728
vt 0.446906 0.654287
vt 0.029995 0.957852
vt 0.644703 0.654287
vt 0.442149 0.370728
vt 0.950211 0.929219
vt 0.442149 0.654287
vt 0.644703 0.370728
vt 0.029995 0.953096
vt 0.747339 0.017928
vt 0.649288 0.654287
vt 0.949756 0.933782
vt 0.649288 0.370728
vt 0.747339 0.301487
vt 0.029763 0.948516
vt 0.769129 0.370728
vt 0.743088 0.017928
vt 0.949096 0.937981
vt 0.743088 0.301487
vt 0.769129 0.654287
vt 0.029308 0.944290
vt 0.901471 0.301487
vt 0.765360 0.370728
vt 0.948256 0.941655
vt 0.765360 0.654287
vt 0.901471 0.017928
vt 0.028648 0.940579
vt 0.925140 0.370728
vt 0.904637 0.301487
vt 0.947268 0.944663
vt 0.904637 0.017928
vt 0.925140 0.654287
vt 0.027807 0.937527
vt 0.286715 0.656088
vt 0.922658 0.370728
vt 0.946170 0.946889
vt 0.922658 0.654287
vt 0.286715 0.939647
vt 0.026819 0.935250
vt 0.362190 0.690143
vt 0.284925 0.656088
vt 0.945004 0.948248
vt 0.284925 0.939647
vt 0.362190 0.973702
vt 0.025721 0.933835
vt 0.962264 0.370728
vt 0.360923 0.690143
vt 0.943816 0.948688
vt 0.360923 0.973702
vt 0.962264 0.654286
vt 0.024556 0.933339
vt 0.249068 0.656088
vt 0.960997 0.370728
vt 0.942650 0.948191
vt 0.960997 0.654286
vt 0.249068 0.939647
vt 0.023367 0.933778
vt 0.134742 0.656088
vt 0.247277 0.656088
vt 0.941552 0.946777
vt 0.247277 0.939647
vt 0.134742 0.939647
vt 0.022202 0.935137
vt 0.883635 0.654287
vt 0.132260 0.656088
vt 0.940564 0.944499
vt 0.132260 0.939647
vt 0.883635 0.370728
vt 0.021104 0.937363
vt 0.808755 0.370728
vt 0.886801 0.654287
vt 0.939724 0.941447
vt 0.886801 0.370728
vt 0.808755 0.654287
vt 0.020116 0.940371
vt 0.729503 0.370728
vt 0.804986 0.370728
vt 0.939063 0.937736
vt 0.804986 0.654287
vt 0.729503 0.654287
vt 0.019275 0.944045
vt 0.604261 0.654287
vt 0.725252 0.370728
vt 0.938609 0.933510
vt 0.725252 0.654287
vt 0.604261 0.370728
vt 0.018615 0.948244
vt 0.487519 0.370728
vt 0.608846 0.654287
vt 0.938377 0.928931
vt 0.608846 0.370728
vt 0.487519 0.654287
vt 0.018160 0.952807
vt 0.401536 0.654287
vt 0.482763 0.370728
vt 0.938377 0.924174
vt 0.482763 0.654287
vt 0.401536 0.370728
vt 0.017928 0.957558
vt 0.527961 0.370728
vt 0.406293 0.654287
vt 0.938609 0.919423
vt 0.406293 0.370728
vt 0.527961 0.654287
vt 0.017928 0.962314
vt 0.685145 0.654287
vt 0.523376 0.370728
vt 0.939063 0.914861
vt 0.523376 0.654287
vt 0.685145 0.370728
vt 0.018160 0.966894
vt 0.783196 0.301487
vt 0.689395 0.654287
vt 0.939724 0.910662
vt 0.689395 0.370728
vt 0.783196 0.017928
vt 0.018615 0.971120
vt 0.865614 0.017928
vt 0.786965 0.301487
vt 0.940564 0.906987
vt 0.786965 0.017928
vt 0.865614 0.301487
vt 0.019275 0.974831
vt 0.208938 0.939647
vt 0.862448 0.017928
vt 0.941552 0.903979
vt 0.862448 0.301487
vt 0.208938 0.656088
vt 0.020116 0.977883
vt 0.940494 0.301487
vt 0.211421 0.939647
vt 0.942650 0.901753
vt 0.211421 0.656088
vt 0.021104 0.980160
vt 0.940494 0.017928
vt 0.435171 0.973702
vt 0.942284 0.301487
vt 0.943816 0.900394
vt 0.022202 0.981575
vt 0.942284 0.017928
vt 0.435171 0.690143
s 0
usemtl マテリアル
f 2/4/1 3/8/1 1/1/1
f 4/11/2 5/14/2 3/7/2
f 6/17/3 7/20/3 5/13/3
f 8/23/4 9/26/4 7/19/4
f 10/29/5 11/32/5 9/25/5
f 12/35/6 13/38/6 11/31/6
f 14/41/7 15/44/7 13/37/7
f 16/47/8 17/50/8 15/43/8
f 18/53/9 19/56/9 17/49/9
f 20/59/10 21/62/10 19/55/10
f 22/65/11 23/68/11 21/61/11
f 24/71/12 25/74/12 23/67/12
f 26/77/13 27/80/13 25/73/13
f 28/83/14 29/86/14 27/79/14
f 30/89/15 31/92/15 29/85/15
f 32/95/16 33/98/16 31/91/16
f 34/101/17 35/104/17 33/97/17
f 36/107/18 37/110/18 35/103/18
f 38/113/19 39/116/19 37/109/19
f 40/119/20 41/122/20 39/115/20
f 42/125/21 43/128/21 41/121/21
f 44/131/22 45/134/22 43/127/22
f 46/137/23 47/140/23 45/133/23
f 48/143/24 49/146/24 47/139/24
f 50/149/25 51/152/25 49/145/25
f 52/155/26 53/158/26 51/151/26
f 54/161/27 55/164/27 53/157/27
f 56/167/28 57/170/28 55/163/28
f 58/173/29 59/176/29 57/169/29
f 60/179/30 61/182/30 59/175/30
f 38/114/31 22/66/31 6/18/31
f 62/186/32 63/188/32 61/181/32
f 64/192/33 1/2/33 63/187/33
f 31/93/34 47/141/34 63/189/34
f 66/196/34 67/201/34 65/193/34
f 68/203/35 71/212/35 67/199/35
f 72/216/31 69/206/31 71/211/31
f 70/209/36 65/194/36 69/205/36
f 71/213/37 65/195/37 67/200/37
f 68/204/38 70/210/38 72/214/38
f 74/220/39 75/224/39 73/217/39
f 76/227/40 77/230/40 75/223/40
f 78/233/41 79/236/41 77/229/41
f 80/239/42 81/242/42 79/235/42
f 82/245/43 83/248/43 81/241/43
f 84/251/44 85/254/44 83/247/44
f 86/257/45 87/260/45 85/253/45
f 88/263/46 89/266/46 87/259/46
f 90/269/47 91/272/47 89/265/47
f 92/275/48 93/278/48 91/271/48
f 94/281/49 95/284/49 93/277/49
f 96/287/50 97/290/50 95/283/50
f 98/293/51 99/296/51 97/289/51
f 100/299/52 101/302/52 99/295/52
f 102/305/53 103/308/53 101/301/53
f 104/311/54 105/314/54 103/307/54
f 106/317/55 107/320/55 105/313/55
f 108/323/56 109/326/56 107/319/56
f 110/329/57 111/332/57 109/325/57
f 112/335/58 113/338/58 111/331/58
f 114/341/59 115/344/59 113/337/59
f 116/347/60 117/350/60 115/343/60
f 118/353/61 119/356/61 117/349/61
f 120/359/62 121/362/62 119/355/62
f 122/365/63 123/368/63 121/361/63
f 124/371/64 125/374/64 123/367/64
f 126/377/65 127/380/65 125/373/65
f 128/383/66 129/386/66 127/379/66
f 130/389/67 131/392/67 129/385/67
f 132/395/68 133/398/68 131/391/68
f 82/246/38 80/240/38 130/390/38
f 134/402/69 135/404/69 133/397/69
f 136/408/70 73/218/70 135/403/70
f 131/393/37 133/399/37 79/237/37
f 2/4/1 4/10/1 3/8/1
f 4/11/2 6/16/2 5/14/2
f 6/17/3 8/22/3 7/20/3
f 8/23/4 10/28/4 9/26/4
f 10/29/5 12/34/5 11/32/5
f 12/35/6 14/40/6 13/38/6
f 14/41/7 16/46/7 15/44/7
f 16/47/8 18/52/8 17/50/8
f 18/53/9 20/58/9 19/56/9
f 20/59/10 22/64/10 21/62/10
f 22/65/11 24/70/11 23/68/11
f 24/71/12 26/76/12 25/74/12
f 26/77/13 28/82/13 27/80/13
f 28/83/14 30/88/14 29/86/14
f 30/89/15 32/94/15 31/92/15
f 32/95/16 34/100/16 33/98/16
f 34/101/17 36/106/17 35/104/17
f 36/107/18 38/112/18 37/110/18
f 38/113/19 40/118/19 39/116/19
f 40/119/20 42/124/20 41/122/20
f 42/125/21 44/130/21 43/128/21
f 44/131/22 46/136/22 45/134/22
f 46/137/23 48/142/23 47/140/23
f 48/143/24 50/148/24 49/146/24
f 50/149/25 52/154/25 51/152/25
f 52/155/26 54/160/26 53/158/26
f 54/161/27 56/166/27 55/164/27
f 56/167/28 58/172/28 57/170/28
f 58/173/29 60/178/29 59/176/29
f 60/179/30 62/184/30 61/182/30
f 6/18/31 4/12/31 2/5/31
f 2/5/31 64/190/31 6/18/31
f 64/190/31 62/185/31 6/18/31
f 62/185/31 60/180/31 58/174/31
f 58/174/31 56/168/31 54/162/31
f 54/162/31 52/156/31 50/150/31
f 50/150/31 48/144/31 54/162/31
f 48/144/31 46/138/31 54/162/31
f 46/138/31 44/132/31 42/126/31
f 42/126/31 40/120/31 38/114/31
f 38/114/31 36/108/31 30/90/31
f 36/108/31 34/102/31 30/90/31
f 34/102/31 32/96/31 30/90/31
f 30/90/31 28/84/31 26/78/31
f 26/78/31 24/72/31 22/66/31
f 22/66/31 20/60/31 14/42/31
f 20/60/31 18/54/31 14/42/31
f 18/54/31 16/48/31 14/42/31
f 14/42/31 12/36/31 10/30/31
f 10/30/31 8/24/31 6/18/31
f 62/185/31 58/174/31 6/18/31
f 58/174/31 54/162/31 6/18/31
f 46/138/31 42/126/31 54/162/31
f 42/126/31 38/114/31 54/162/31
f 30/90/31 26/78/31 38/114/31
f 26/78/31 22/66/31 38/114/31
f 14/42/31 10/30/31 22/66/31
f 10/30/31 6/18/31 22/66/31
f 6/18/31 54/162/31 38/114/31
f 62/186/32 64/191/32 63/188/32
f 64/192/33 2/6/33 1/2/33
f 63/189/34 1/3/34 3/9/34
f 3/9/34 5/15/34 7/21/34
f 7/21/34 9/27/34 11/33/34
f 11/33/34 13/39/34 15/45/34
f 15/45/34 17/51/34 19/57/34
f 19/57/34 21/63/34 23/69/34
f 23/69/34 25/75/34 27/81/34
f 27/81/34 29/87/34 31/93/34
f 31/93/34 33/99/34 35/105/34
f 35/105/34 37/111/34 39/117/34
f 39/117/34 41/123/34 43/129/34
f 43/129/34 45/135/34 47/141/34
f 47/141/34 49/147/34 51/153/34
f 51/153/34 53/159/34 55/165/34
f 55/165/34 57/171/34 59/177/34
f 59/177/34 61/183/34 63/189/34
f 63/189/34 3/9/34 15/45/34
f 3/9/34 7/21/34 15/45/34
f 7/21/34 11/33/34 15/45/34
f 15/45/34 19/57/34 31/93/34
f 19/57/34 23/69/34 31/93/34
f 23/69/34 27/81/34 31/93/34
f 31/93/34 35/105/34 47/141/34
f 35/105/34 39/117/34 47/141/34
f 39/117/34 43/129/34 47/141/34
f 47/141/34 51/153/34 63/189/34
f 51/153/34 55/165/34 63/189/34
f 55/165/34 59/177/34 63/189/34
f 63/189/34 15/45/34 31/93/34
f 66/196/34 68/202/34 67/201/34
f 68/203/35 72/215/35 71/212/35
f 72/216/31 70/208/31 69/206/31
f 70/209/36 66/197/36 65/194/36
f 71/213/37 69/207/37 65/195/37
f 68/204/38 66/198/38 70/210/38
f 74/220/39 76/226/39 75/224/39
f 76/227/40 78/232/40 77/230/40
f 78/233/41 80/238/41 79/236/41
f 80/239/42 82/244/42 81/242/42
f 82/245/43 84/250/43 83/248/43
f 84/251/44 86/256/44 85/254/44
f 86/257/45 88/262/45 87/260/45
f 88/263/46 90/268/46 89/266/46
f 90/269/47 92/274/47 91/272/47
f 92/275/48 94/280/48 93/278/48
f 94/281/49 96/286/49 95/284/49
f 96/287/50 98/292/50 97/290/50
f 98/293/51 100/298/51 99/296/51
f 100/299/52 102/304/52 101/302/52
f 102/305/53 104/310/53 103/308/53
f 104/311/54 106/316/54 105/314/54
f 106/317/55 108/322/55 107/320/55
f 108/323/56 110/328/56 109/326/56
f 110/329/57 112/334/57 111/332/57
f 112/335/58 114/340/58 113/338/58
f 114/341/59 116/346/59 115/344/59
f 116/347/60 118/352/60 117/350/60
f 118/353/61 120/358/61 119/356/61
f 120/359/62 122/364/62 121/362/62
f 122/365/63 124/370/63 123/368/63
f 124/371/64 126/376/64 125/374/64
f 126/377/65 128/382/65 127/380/65
f 128/383/66 130/388/66 129/386/66
f 130/389/67 132/394/67 131/392/67
f 132/395/68 134/400/68 133/398/68
f 78/234/38 76/228/38 136/406/38
f 76/228/38 74/221/38 136/406/38
f 136/406/38 134/401/38 78/234/38
f 134/401/38 132/396/38 78/234/38
f 132/396/38 130/390/38 80/240/38
f 78/234/38 132/396/38 80/240/38
f 130/390/38 128/384/38 82/246/38
f 128/384/38 126/378/38 84/252/38
f 82/246/38 128/384/38 84/252/38
f 126/378/38 124/372/38 88/264/38
f 124/372/38 122/366/38 90/270/38
f 122/366/38 120/360/38 92/276/38
f 120/360/38 118/354/38 94/282/38
f 118/354/38 116/348/38 94/282/38
f 116/348/38 114/342/38 96/288/38
f 94/282/38 116/348/38 96/288/38
f 114/342/38 112/336/38 98/294/38
f 112/336/38 110/330/38 100/300/38
f 98/294/38 112/336/38 100/300/38
f 110/330/38 108/324/38 104/312/38
f 108/324/38 106/318/38 104/312/38
f 104/312/38 102/306/38 110/330/38
f 102/306/38 100/300/38 110/330/38
f 98/294/38 96/288/38 114/342/38
f 94/282/38 92/276/38 120/360/38
f 92/276/38 90/270/38 122/366/38
f 90/270/38 88/264/38 124/372/38
f 88/264/38 86/258/38 126/378/38
f 86/258/38 84/252/38 126/378/38
f 134/402/69 136/407/69 135/404/69
f 136/408/70 74/222/70 73/218/70
f 135/405/37 73/219/37 75/225/37
f 75/225/37 77/231/37 135/405/37
f 77/231/37 79/237/37 133/399/37
f 135/405/37 77/231/37 133/399/37
f 79/237/37 81/243/37 129/387/37
f 81/243/37 83/249/37 127/381/37
f 83/249/37 85/255/37 127/381/37
f 85/255/37 87/261/37 125/375/37
f 127/381/37 85/255/37 125/375/37
f 87/261/37 89/267/37 121/363/37
f 89/267/37 91/273/37 119/357/37
f 91/273/37 93/279/37 119/357/37
f 93/279/37 95/285/37 117/351/37
f 119/357/37 93/279/37 117/351/37
f 95/285/37 97/291/37 113/339/37
f 97/291/37 99/297/37 111/333/37
f 99/297/37 101/303/37 111/333/37
f 101/303/37 103/309/37 109/327/37
f 111/333/37 101/303/37 109/327/37
f 103/309/37 105/315/37 107/321/37
f 107/321/37 109/327/37 103/309/37
f 111/333/37 113/339/37 97/291/37
f 113/339/37 115/345/37 95/285/37
f 115/345/37 117/351/37 95/285/37
f 119/357/37 121/363/37 89/267/37
f 121/363/37 123/369/37 87/261/37
f 123/369/37 125/375/37 87/261/37
f 127/381/37 129/387/37 81/243/37
f 129/387/37 131/393/37 79/237/37
